<?xml version="1.0" encoding="UTF-8" standalone="no"?>
<svg
   viewBox="0 0 56.133999 75.216004"
   height="75.216003"
   width="56.133999"
   xml:space="preserve"
   id="svg2"
   version="1.1"
   sodipodi:docname="JustLogoAEReviseted.svg"
   inkscape:version="1.4.2 (ebf0e94, 2025-05-08)"
   xmlns:inkscape="http://www.inkscape.org/namespaces/inkscape"
   xmlns:sodipodi="http://sodipodi.sourceforge.net/DTD/sodipodi-0.dtd"
   xmlns="http://www.w3.org/2000/svg"
   xmlns:svg="http://www.w3.org/2000/svg"
   xmlns:rdf="http://www.w3.org/1999/02/22-rdf-syntax-ns#"
   xmlns:cc="http://creativecommons.org/ns#"
   xmlns:dc="http://purl.org/dc/elements/1.1/"><sodipodi:namedview
     id="namedview1"
     pagecolor="#ffffff"
     bordercolor="#000000"
     borderopacity="0.25"
     inkscape:showpageshadow="2"
     inkscape:pageopacity="0.0"
     inkscape:pagecheckerboard="0"
     inkscape:deskcolor="#d1d1d1"
     inkscape:zoom="2.8284271"
     inkscape:cx="-45.961941"
     inkscape:cy="47.729708"
     inkscape:window-width="3406"
     inkscape:window-height="1355"
     inkscape:window-x="0"
     inkscape:window-y="0"
     inkscape:window-maximized="1"
     inkscape:current-layer="layer1" /><metadata
     id="metadata8"><rdf:RDF><cc:Work
         rdf:about=""><dc:format>image/svg+xml</dc:format><dc:type
           rdf:resource="http://purl.org/dc/dcmitype/StillImage" /></cc:Work></rdf:RDF></metadata><defs
     id="defs6" /><g
     inkscape:groupmode="layer"
     id="layer1"
     inkscape:label="Layer 1"
     transform="translate(-21.982344,-10.482233)"><g
       id="g6"
       transform="translate(23.02334,13.31066)"><path
         style="fill:#002e6e;fill-opacity:1;stroke:none;stroke-width:0.1;stroke-dasharray:none"
         d="m 52.153598,0 c 0,0 -8.378757,1.4516106 -12.44146,2.6705156 -3.315717,0.9947919 -6.599841,2.1837674 -9.676692,3.7701396 0,0 -4.087491,2.3091389 -5.849107,3.8367868 -2.432189,2.10916 -4.644222,4.537709 -6.387022,7.244506 -1.256896,1.952123 -2.162828,4.133884 -2.84982,6.355603 -0.528528,1.709251 -0.859394,3.500697 -1.062816,5.278196 -0.262234,2.291396 -0.346492,4.605795 -0.314178,6.911922 0.04399,3.139467 0.288733,6.280057 0.691192,9.393932 0.191148,1.478933 0.816864,4.398496 0.816864,4.398496 0,0 1.207087,-7.465203 1.885069,-11.184748 0.487998,-2.677256 0.918031,-5.369651 1.570892,-8.011547 0.437972,-1.772318 0.898345,-3.54954 1.570891,-5.246777 0.862678,-2.177054 1.914554,-4.289152 3.141783,-6.283566 1.121824,-1.823117 2.411995,-3.551568 3.832976,-5.152524 1.465419,-1.651022 3.077545,-3.183522 4.806928,-4.5555859 1.758924,-1.3955013 3.661986,-2.6152603 5.623791,-3.707304 C 39.519008,4.6013337 41.632054,3.6772739 43.765038,2.8276047 46.506316,1.7356226 52.153598,0 52.153598,0 Z"
         id="path1"
         sodipodi:nodetypes="cssaasssscsassaaaac" /><path
         style="display:inline;fill:#00b8de;fill-opacity:1;stroke:#00b8de;stroke-width:0.1;stroke-dasharray:none;stroke-opacity:1"
         d="m 48.097122,5.7872057 c 0,0 -3.160709,1.0434223 -4.720849,1.6217506 -0.900635,0.3338566 -1.797844,0.6794575 -2.676999,1.0663565 -1.004931,0.4422504 -2.000389,0.9099966 -2.965804,1.4329166 -0.718598,0.3892306 -1.411307,0.8253606 -2.099389,1.2662986 -0.765225,0.490373 -1.524592,0.991883 -2.2549,1.532887 -0.687684,0.509429 -1.374712,1.025691 -1.999419,1.610643 -1.149579,1.076422 -2.239051,2.228335 -3.199069,3.476766 -0.995551,1.29464 -1.895301,2.674856 -2.632568,4.132132 -0.930293,1.83881 -1.618206,3.797992 -2.232684,5.76499 -0.722214,2.311871 -1.17384,4.700291 -1.699506,7.064612 -0.425674,1.914584 -0.771914,3.846037 -1.177435,5.76499 -0.229594,1.086454 -0.644257,3.243501 -0.710904,3.254609 -0.06665,0.01111 -1.175095,4.537624 -1.988311,6.731375 -0.718312,1.937737 -1.567204,3.832582 -2.543705,5.653912 -0.95286,1.777236 -2.025648,3.49686 -3.221285,5.120732 -0.881268,1.196908 -1.872083,2.313501 -2.8991567,3.387904 -1.1675264,1.221328 -3.6989242,3.465659 -3.6989242,3.465659 l -2.4881652,2.032742 c 0,0 2.2697879,-0.774259 3.3767957,-1.232975 1.5808365,-0.655058 3.1525594,-1.345539 4.6542014,-2.166037 1.384582,-0.756536 2.730101,-1.594659 3.998837,-2.532596 1.399949,-1.034938 2.735997,-2.166437 3.965514,-3.399012 1.027578,-1.030134 1.985511,-2.138171 2.832509,-3.321256 0.569255,-0.795134 1.455133,-2.499273 1.499564,-2.521489 0.04443,-0.02222 1.18373,-2.255605 1.666182,-3.432335 0.591639,-1.443044 1.074198,-2.931552 1.499564,-4.432044 0.391701,-1.381737 0.689529,-2.789532 0.966386,-4.198779 0.345692,-1.759629 0.590897,-3.537594 0.866414,-5.309567 0.315129,-2.026732 0.555299,-4.065161 0.899739,-6.087118 0.291935,-1.713742 0.597391,-3.426894 0.988601,-5.120733 0.243354,-1.053658 0.517292,-2.101623 0.844199,-3.132423 0.21813,-0.687806 0.469484,-1.365529 0.744228,-2.032742 0.415724,-1.00958 0.858095,-2.01056 1.366269,-2.976912 0.363232,-0.690728 0.768233,-1.360203 1.199651,-2.010526 0.44951,-0.677594 0.925921,-1.339388 1.444025,-1.966095 0.537533,-0.650208 1.120421,-1.263281 1.721721,-1.855016 0.560624,-0.551707 1.145869,-1.079741 1.755045,-1.577319 0.592458,-0.483923 1.210658,-0.9371052 1.843909,-1.3662692 0.64135,-0.4346534 1.301011,-0.8436869 1.977202,-1.2218669 1.070894,-0.5989297 2.182441,-1.1227047 3.287933,-1.6550741 0.598561,-0.2882476 1.810584,-0.8330911 1.810584,-0.8330911 z"
         id="path2"
         sodipodi:nodetypes="cssssssssasssssssccaaaaasaaaasssassssssssc" /><path
         style="display:inline;fill:#002e6e;fill-opacity:1;stroke:none;stroke-width:0.1;stroke-dasharray:none;stroke-opacity:1"
         d="m 35.040548,18.582109 c 0,0 2.040894,1.986968 2.55223,3.220793 0.486459,1.173799 0.09863,2.431266 -0.501422,3.411635 -0.690731,1.12852 -2.041136,1.729538 -3.234663,2.300643 -1.756686,0.840578 -3.706062,1.244053 -5.623792,1.58292 -2.569759,0.454082 -5.196986,0.56669 -7.806452,0.589908 -2.389724,0.02126 -4.784156,-0.13326 -7.157553,-0.412936 -3.124535,-0.368188 -6.2306422,-0.932083 -9.2910542,-1.661574 -1.3397746,-0.319354 -3.95817819,-1.18561 -3.95817819,-1.18561 0,0 1.22248479,0.593211 1.85417229,0.841496 1.5953389,0.627048 3.2315539,1.150205 4.8765745,1.63208 1.1579335,0.339193 2.3283214,0.640717 3.5099536,0.884862 2.750589,0.568318 5.527708,1.023482 8.317706,1.346957 1.390261,0.161188 2.789639,0.245765 4.188348,0.294954 1.74898,0.06151 3.501764,0.07579 5.250184,0 1.400057,-0.06069 2.799504,-0.176815 4.188348,-0.363776 1.281138,-0.172462 2.56554,-0.365557 3.81474,-0.698058 1.141878,-0.303935 2.298012,-0.627862 3.342813,-1.179817 0.808521,-0.427131 1.575891,-0.965502 2.212156,-1.622247 0.290326,-0.299672 0.574455,-0.637007 0.707889,-1.03234 0.188887,-0.559628 0.193707,-1.188526 0.08849,-1.769724 -0.09414,-0.519991 -0.343003,-1.010896 -0.629236,-1.455107 -0.4122,-0.639701 -0.96005,-1.191089 -1.533761,-1.691071 C 39.376097,20.891068 38.430762,20.299358 37.4748,19.748055 36.695424,19.29859 35.040548,18.582109 35.040548,18.582109 Z"
         id="path5"
         sodipodi:nodetypes="csaaaaaacaaaaaaaaaaaaaaac" /><path
         style="fill:#00ffff;fill-opacity:1;stroke:none;stroke-width:0.0281962;stroke-dasharray:none"
         d="m 39.686667,38.577762 c 0,0 3.170084,4.510411 4.110662,7.062306 0.325444,0.882962 0.602766,1.840975 0.501297,2.77536 -0.0984,0.905946 -0.478414,1.81495 -1.052729,2.527562 -0.414591,0.514424 -0.995209,0.940525 -1.629225,1.139884 -0.628995,0.197776 -1.346003,0.181038 -1.980135,0 -0.692603,-0.197746 -1.328987,-0.627182 -1.829746,-1.139884 -0.530544,-0.5432 -0.938477,-1.232912 -1.15299,-1.95762 -0.223119,-0.753787 0.678944,-2.201086 -0.100276,-2.354104 -0.623298,-0.122397 -0.802078,1.709824 -0.802078,1.709824 0,0 0.02759,1.121275 0.225583,1.635481 0.207759,0.539542 0.567057,1.026619 0.977537,1.43724 0.413785,0.413928 0.927023,0.731407 1.453768,0.991202 0.413738,0.204058 0.859342,0.361519 1.315914,0.433649 0.85392,0.134899 2.594227,-0.01245 2.594227,-0.01245 0,0 -0.630068,0.426373 -0.990068,0.532771 -0.534146,0.157865 -1.109674,0.156077 -1.666822,0.136291 -0.570377,-0.02024 -1.144367,-0.100858 -1.691886,-0.260187 -0.5131,-0.149322 -1.032239,-0.335312 -1.466303,-0.644283 -0.431927,-0.30745 -0.792082,-0.720722 -1.077797,-1.164659 -0.422292,-0.656154 -0.791063,-1.38597 -0.90234,-2.155864 -0.120087,-0.830754 0.05752,-1.691787 0.275714,-2.50278 0.193317,-0.718523 0.555767,-1.384502 0.902342,-2.044354 0.385303,-0.733582 0.856929,-1.419805 1.303377,-2.11869 0.394727,-0.617915 0.809229,-1.223268 1.215657,-1.833721 0.487319,-0.731954 1.466302,-2.19303 1.466302,-2.19303 z"
         id="path6"
         sodipodi:nodetypes="caaaaaaaccaaaacaaaaaaaaaac" /><path
         style="fill:#002e6e;fill-opacity:1;stroke:none;stroke-width:0.101275;stroke-dasharray:none;stroke-opacity:1"
         d="m 35.753206,28.312203 c 0,0 2.047394,2.031459 2.56036,3.292902 0.488011,1.200083 0.09892,2.485709 -0.503014,3.488024 -0.692948,1.153791 -2.047648,1.768263 -3.244986,2.352154 -1.762283,0.859403 -3.717875,1.271907 -5.641724,1.618366 -2.577953,0.464245 -5.213554,0.579377 -7.831344,0.603112 -2.397351,0.02177 -4.799412,-0.136239 -7.180372,-0.422187 C 10.777619,38.868149 7.6616037,38.29163 4.5914341,37.545803 3.2473969,37.219291 0.62063225,36.333649 0.62063225,36.333649 c 0,0 1.22639375,0.606493 1.86009725,0.860336 1.6004173,0.641086 3.2418555,1.175958 4.8921214,1.668616 1.1616187,0.3468 2.3357469,0.655069 3.5211411,0.904683 2.759359,0.581041 5.545335,1.0464 8.344235,1.377113 1.394695,0.164794 2.798532,0.251271 4.201704,0.301563 1.754553,0.06287 3.512925,0.07749 5.266924,0 1.40452,-0.06206 2.817001,-0.129223 4.201703,-0.371925 1.439813,-0.252362 3.012369,-0.330815 4.238141,-1.121865 0.330636,-0.213377 0.604263,-1.142431 0.604263,-1.142431 l 0.827179,-2.064235 0.84824,-1.627786 0.79974,1.246205 c 0,0 0.59165,1.548655 1.191007,1.607826 0.737611,0.07283 1.294684,-0.861763 1.601166,-1.531655 0.251535,-0.549803 0.19433,-1.21514 0.08878,-1.809354 -0.0944,-0.531639 -0.344103,-1.033528 -0.631244,-1.48768 -0.413513,-0.654021 -0.963116,-1.21776 -1.538651,-1.728938 -0.83459,-0.741265 -1.782949,-1.346219 -2.741957,-1.909861 -0.781866,-0.459537 -2.44201,-1.192058 -2.44201,-1.192058 z"
         id="path6-5"
         sodipodi:nodetypes="csaaaaaacaaaaaaasccccsaaaaacc" /></g></g></svg>
